<svg xmlns="http://www.w3.org/2000/svg" data-name="Layer 1" viewBox="0 0 32 32" id="avatar"><path fill="#b6ffff" d="M27,23a5.47,5.47,0,0,1-.09,1,5.975,5.975,0,0,1-2.47,3.91c-.01,0-.01,0-.01.01A5.972,5.972,0,0,1,21,29H11a5.99,5.99,0,0,1-5.91-5A5.47,5.47,0,0,1,5,23a5.869,5.869,0,0,1,1.08-3.42A5.957,5.957,0,0,1,11,17H21A6,6,0,0,1,27,23Z"></path><path fill="#13e4ea" d="M22,9a5.869,5.869,0,0,1-1.23,3.63A6,6,0,0,1,10,9a5.47,5.47,0,0,1,.09-1,4.746,4.746,0,0,1,.14-.63,6,6,0,0,1,11.69.65A6.271,6.271,0,0,1,22,9Z"></path><path fill="#007da1" d="M21 29H11a6 6 0 010-12H21a6 6 0 010 12zM11 19a4 4 0 000 8H21a4 4 0 000-8zM16 15a6 6 0 116-6 5.935 5.935 0 01-.814 3.012 1 1 0 01-1.731-1A3.954 3.954 0 0020 9a4 4 0 10-4 4 3.652 3.652 0 00.935-.117 1 1 0 11.511 1.933A5.652 5.652 0 0116 15z"></path></svg>